<svg id="visual" viewBox="0 0 960 540" width="960" height="540" xmlns="http://www.w3.org/2000/svg" xmlns:xlink="http://www.w3.org/1999/xlink" version="1.1"><rect x="0" y="0" width="960" height="540" fill="#ffffff"></rect><g transform="translate(967.9523334055044 54.013291769669934)"><path d="M249 -410.2C336.7 -380.7 431.4 -342.2 468.4 -272.4C505.4 -202.5 484.7 -101.3 480.3 -2.5C475.9 96.2 487.8 192.3 442.9 248.5C398 304.6 296.2 320.8 212.9 329.7C129.7 338.6 64.8 340.3 2.3 336.3C-60.2 332.2 -120.3 322.4 -199 310.8C-277.7 299.3 -374.8 285.9 -436.7 233.8C-498.7 181.7 -525.3 90.8 -490.5 20.1C-455.7 -50.6 -359.4 -101.3 -292.9 -145.4C-226.4 -189.6 -189.7 -227.3 -145.8 -282.1C-102 -337 -51 -409 14.8 -434.7C80.7 -460.4 161.3 -439.8 249 -410.2" fill="#FFF1DA"></path></g></svg>