<?xml version="1.0" encoding="UTF-8"?>
<!-- Generator: visioncortex VTracer 0.6.1 -->
<svg version="1.1" xmlns="http://www.w3.org/2000/svg" width="1280" height="370">
<path d="M0 0 C0.88371994 -0.00235223 1.76743988 -0.00470446 2.67793921 -0.00712797 C5.67219942 -0.01384389 8.6664165 -0.01335897 11.66068363 -0.01294994 C13.81596619 -0.01624698 15.97124813 -0.0199722 18.12652928 -0.02409142 C24.07519943 -0.03413816 30.02385949 -0.03783251 35.97253692 -0.04048073 C42.37836601 -0.04437598 48.78418705 -0.05395495 55.19001102 -0.0626936 C69.94249636 -0.08154619 84.69498146 -0.09171832 99.44747594 -0.10015428 C106.73663365 -0.10435889 114.02579054 -0.10958119 121.31494756 -0.11483881 C146.26289843 -0.13273235 171.21084952 -0.14772789 196.15880585 -0.155159 C197.72566531 -0.15563376 199.29252478 -0.15610964 200.85938424 -0.15658666 C201.63641524 -0.15682303 202.41344623 -0.15705941 203.21402362 -0.15730295 C207.15091993 -0.15850416 211.08781625 -0.15971961 215.02471256 -0.16094494 C215.80600601 -0.16118509 216.58729946 -0.16142524 217.39226847 -0.16167267 C242.71698538 -0.16956352 268.04165542 -0.19298923 293.36635187 -0.22550088 C320.13564537 -0.25980437 346.90491145 -0.27951072 373.6742273 -0.28280324 C376.61347967 -0.28322078 379.55273202 -0.28370034 382.49198437 -0.28422642 C383.21572057 -0.28434961 383.93945676 -0.2844728 384.68512436 -0.28459973 C396.32995642 -0.28693136 407.97473405 -0.30258952 419.61954671 -0.32306826 C431.32792284 -0.34333185 443.03621834 -0.34846787 454.74461042 -0.33929763 C461.08716351 -0.33474644 467.42954 -0.33668697 473.77206898 -0.35605907 C479.57990967 -0.3736449 485.38744433 -0.37272995 491.19528807 -0.35716178 C493.29501004 -0.35477875 495.39475296 -0.35914517 497.49444287 -0.37099043 C508.02142858 -0.42669301 516.87180238 -0.36232237 526.60112858 4.13422108 C527.26112858 4.13422108 527.92112858 4.13422108 528.60112858 4.13422108 C528.60112858 5.12422108 528.60112858 6.11422108 528.60112858 7.13422108 C529.17862858 7.25797108 529.75612858 7.38172108 530.35112858 7.50922108 C535.43934659 8.92261497 536.99294551 10.54381888 539.60112858 15.13422108 C540.46003508 16.16863169 541.33589238 17.18914716 542.22612858 18.19672108 C544.39375289 20.8777301 545.0630941 21.90601423 545.60112858 25.13422108 C546.09649113 25.9793224 546.09649113 25.9793224 546.601861 26.84149647 C548.59210028 31.40791157 547.93297014 36.643053 547.91680241 41.55145741 C547.91364382 43.56201948 547.93711474 45.57110648 547.9624567 47.5814867 C547.96310123 48.85572498 547.96374577 50.12996326 547.96440983 51.44281483 C547.96888126 53.18776234 547.96888126 53.18776234 547.97344303 54.96796131 C547.56365124 58.45293816 546.56231187 60.26941664 544.60112858 63.13422108 C544.32140202 63.94504139 544.04167545 64.7558617 543.75347233 65.59125233 C542.21072601 68.99575352 539.82117531 71.27504983 537.16362858 73.82172108 C536.6731403 74.30705311 536.18265202 74.79238514 535.67730045 75.2924242 C529.70658116 81.13422108 529.70658116 81.13422108 524.60112858 81.13422108 C524.60112858 81.79422108 524.60112858 82.45422108 524.60112858 83.13422108 C523.61112858 83.13422108 522.62112858 83.13422108 521.60112858 83.13422108 C521.60112858 83.79422108 521.60112858 84.45422108 521.60112858 85.13422108 C345.71112858 85.13422108 169.82112858 85.13422108 -11.39887142 85.13422108 C-11.39887142 84.47422108 -11.39887142 83.81422108 -11.39887142 83.13422108 C-12.38887142 83.13422108 -13.37887142 83.13422108 -14.39887142 83.13422108 C-14.39887142 82.47422108 -14.39887142 81.81422108 -14.39887142 81.13422108 C-15.47394955 81.00853748 -15.47394955 81.00853748 -16.57074642 80.88031483 C-20.0194371 79.97050831 -21.91088227 78.46334982 -24.64887142 76.19672108 C-25.52027767 75.48644764 -26.39168392 74.7761742 -27.28949642 74.04437733 C-29.39887142 72.13422108 -29.39887142 72.13422108 -30.39887142 70.13422108 C-31.38887142 69.80422108 -32.37887142 69.47422108 -33.39887142 69.13422108 C-33.39887142 67.81422108 -33.39887142 66.49422108 -33.39887142 65.13422108 C-34.05887142 65.13422108 -34.71887142 65.13422108 -35.39887142 65.13422108 C-39.89422374 53.57175675 -42.32352051 41.49500214 -39.39887142 29.13422108 C-38.73887142 28.80422108 -38.07887142 28.47422108 -37.39887142 28.13422108 C-36.99157915 25.81265511 -36.65448465 23.47734238 -36.39887142 21.13422108 C-35.73887142 21.13422108 -35.07887142 21.13422108 -34.39887142 21.13422108 C-34.1591058 20.40590076 -33.91934017 19.67758045 -33.67230892 18.92718983 C-32.21834274 15.73827626 -30.52228684 13.891184 -28.02387142 11.44672108 C-27.25301205 10.67972889 -26.48215267 9.9127367 -25.68793392 9.12250233 C-23.61785701 7.32443211 -21.89369373 6.21406954 -19.39887142 5.13422108 C-18.75949642 4.80422108 -18.12012142 4.47422108 -17.46137142 4.13422108 C-15.14898752 3.01306525 -12.78858873 2.07753054 -10.39887142 1.13422108 C-7.1479278 -0.49125073 -3.57221884 -0.00636785 0 0 Z " fill="#F7EFD8" transform="translate(661.398871421814,284.86577892303467)"/>
<path d="M0 0 C1.63485352 -0.02416992 1.63485352 -0.02416992 3.30273438 -0.04882812 C10.00650791 -0.05285926 15.51297249 0.67753104 21.6875 3.3125 C23.06615234 3.89451172 23.06615234 3.89451172 24.47265625 4.48828125 C31.55434843 8.02305385 38.06786782 11.74329828 42.6875 18.3125 C42.76097656 16.97445312 42.76097656 16.97445312 42.8359375 15.609375 C42.91070312 14.43890625 42.98546875 13.2684375 43.0625 12.0625 C43.13210938 10.90234375 43.20171875 9.7421875 43.2734375 8.546875 C43.65770566 5.54523313 44.27866773 3.91266061 45.6875 1.3125 C53.18046555 1.21124759 60.67325533 1.14109673 68.16674805 1.09277344 C70.71694532 1.07263303 73.26709628 1.04531903 75.81713867 1.01074219 C79.47846897 0.96233261 83.13918982 0.93955526 86.80078125 0.921875 C88.51652092 0.89090729 88.51652092 0.89090729 90.266922 0.85931396 C91.32779526 0.85901184 92.38866852 0.85870972 93.48168945 0.85839844 C94.88400566 0.84507477 94.88400566 0.84507477 96.31465149 0.83148193 C98.6875 1.3125 98.6875 1.3125 100.31241417 2.9526844 C102.08460679 5.99398386 102.06225054 8.03716015 102.0617218 11.55056763 C102.06873611 12.83212738 102.07575043 14.11368713 102.08297729 15.43408203 C102.07554986 16.85205235 102.06781872 18.2700211 102.05981445 19.68798828 C102.06224268 21.18285373 102.06596229 22.67771756 102.07087708 24.1725769 C102.08028397 28.23028287 102.07086329 32.28774755 102.05754495 36.34543467 C102.04623427 40.58859706 102.05033755 44.83174752 102.05229187 49.07492065 C102.05317477 56.19858751 102.04209361 63.3221592 102.02368164 70.44580078 C102.00249782 78.68923995 101.99900759 86.93253984 102.0052436 95.17600071 C102.01093137 103.09963076 102.00529959 111.02321161 101.99407005 118.94683456 C101.98941792 122.32240582 101.98855284 125.69794706 101.9906559 129.07352066 C101.99253486 133.04455167 101.98446537 137.01544022 101.9685955 140.98643875 C101.96434119 142.44657298 101.96350977 143.90672164 101.96628571 145.36685944 C101.96949142 147.35404607 101.95923052 149.34124107 101.94819641 151.32839966 C101.94511711 152.99919177 101.94511711 152.99919177 101.94197559 154.70373726 C101.6875 157.3125 101.6875 157.3125 99.6875 159.3125 C97.3657074 159.55973816 97.3657074 159.55973816 94.42749023 159.55541992 C93.32972763 159.55849655 92.23196503 159.56157318 91.10093689 159.56474304 C89.91133865 159.55755753 88.72174042 159.55037201 87.49609375 159.54296875 C86.28051285 159.54251053 85.06493195 159.54205231 83.81251526 159.5415802 C81.23933945 159.53855496 78.66616552 159.53066063 76.09301758 159.51831055 C72.13811816 159.50006053 68.18345273 159.49780075 64.22851562 159.49804688 C61.73437296 159.49313169 59.24023189 159.48730336 56.74609375 159.48046875 C55.55447128 159.47935593 54.36284882 159.4782431 53.13511658 159.47709656 C52.04050613 159.47071671 50.94589569 159.46433685 49.81811523 159.45776367 C48.36489113 159.45204597 48.36489113 159.45204597 46.88230896 159.44621277 C44.6875 159.3125 44.6875 159.3125 43.6875 158.3125 C43.45222227 155.96262738 43.27363583 153.60693961 43.125 151.25 C43.04121094 149.95964844 42.95742188 148.66929687 42.87109375 147.33984375 C42.81050781 146.34082031 42.74992187 145.34179688 42.6875 144.3125 C40.68766466 145.10367904 40.68766466 145.10367904 38.6875 146.3125 C38.3575 147.3025 38.0275 148.2925 37.6875 149.3125 C37.0275 149.3125 36.3675 149.3125 35.6875 149.3125 C35.3575 150.3025 35.0275 151.2925 34.6875 152.3125 C21.6448633 161.80956556 5.38282102 164.05039022 -10.3125 162.3125 C-13.1484375 161.3359375 -13.1484375 161.3359375 -15.3125 160.3125 C-16.66088446 160.03298844 -18.01563912 159.78251217 -19.375 159.5625 C-25.4648493 158.28907451 -30.99363178 155.49000569 -36.3125 152.3125 C-36.8075 151.3225 -36.8075 151.3225 -37.3125 150.3125 C-38.055 149.879375 -38.7975 149.44625 -39.5625 149 C-44.38451792 146.04103446 -47.994649 141.85918471 -51.3125 137.3125 C-51.3125 136.6525 -51.3125 135.9925 -51.3125 135.3125 C-52.3025 134.9825 -53.2925 134.6525 -54.3125 134.3125 C-55.96713199 131.92982993 -57.18820412 129.62974052 -58.24609375 126.9296875 C-59.27945281 124.39360483 -60.49670252 122.08642346 -61.8125 119.6875 C-64.18379976 115.04254224 -65.22262553 110.70521628 -65.953125 105.5625 C-66.2014491 103.28414828 -66.2014491 103.28414828 -67.3125 101.3125 C-68.30535992 94.32023119 -68.49555984 87.43041398 -68.5 80.375 C-68.51224609 79.35470703 -68.52449219 78.33441406 -68.53710938 77.28320312 C-68.54970045 70.70646566 -67.84893923 64.70107877 -66.3125 58.3125 C-65.96058594 56.70375 -65.96058594 56.70375 -65.6015625 55.0625 C-63.48252405 46.28718782 -61.26975314 38.26262867 -55.3125 31.3125 C-55.003125 30.4875 -54.69375 29.6625 -54.375 28.8125 C-52.97954992 25.52908805 -50.8859461 23.76625094 -48.3125 21.3125 C-47.44815225 20.23727222 -46.59390488 19.15384612 -45.75 18.0625 C-43.29854343 15.29675412 -42.71698948 14.92044455 -39.3125 14.3125 C-38.9825 13.3225 -38.6525 12.3325 -38.3125 11.3125 C-36.7890625 10.14453125 -36.7890625 10.14453125 -34.9375 9.125 C-34.33164062 8.78082031 -33.72578125 8.43664062 -33.1015625 8.08203125 C-31.3125 7.3125 -31.3125 7.3125 -28.3125 7.3125 C-28.3125 6.6525 -28.3125 5.9925 -28.3125 5.3125 C-27.66023438 5.11914062 -27.00796875 4.92578125 -26.3359375 4.7265625 C-25.46195312 4.46617188 -24.58796875 4.20578125 -23.6875 3.9375 C-22.82898438 3.68226562 -21.97046875 3.42703125 -21.0859375 3.1640625 C-18.31430548 2.36410223 -18.31430548 2.36410223 -15.74609375 1.23046875 C-10.51983689 -0.16676716 -5.38546753 -0.0157562 0 0 Z M-0.3125 56.3125 C-0.3125 56.9725 -0.3125 57.6325 -0.3125 58.3125 C-1.3025 58.6425 -2.2925 58.9725 -3.3125 59.3125 C-8.59384373 63.34334925 -9.77044988 71.71135514 -10.70703125 77.93359375 C-11.13850531 87.66573091 -7.87712873 98.0914084 -1.3125 105.3125 C0.77114504 106.01127349 0.77114504 106.01127349 2.6875 106.3125 C2.6875 106.9725 2.6875 107.6325 2.6875 108.3125 C10.09555499 111.77680964 16.24676147 113.90888436 24.296875 111.546875 C33.2390912 108.21338612 37.89707712 103.74214058 42.2734375 95.2265625 C44.16266807 90.71366445 44.22259689 86.33972492 44.1875 81.5 C44.18322998 80.6136084 44.17895996 79.7272168 44.17456055 78.81396484 C43.99687211 71.98897073 42.82792604 66.87477564 38.6875 61.3125 C38.28015625 60.71308594 37.8728125 60.11367187 37.453125 59.49609375 C34.74898863 55.85253339 31.80047621 54.08855791 27.6875 52.3125 C27.1925 51.8175 27.1925 51.8175 26.6875 51.3125 C23.48961593 50.97699822 20.27570668 50.98735229 17.0625 50.9375 C15.72638672 50.88142578 15.72638672 50.88142578 14.36328125 50.82421875 C7.8423195 50.73778479 4.53619581 51.88889533 -0.3125 56.3125 Z " fill="#000000" transform="translate(364.3125,99.6875)"/>
<path d="M0 0 C0.71326447 -0.00173218 1.42652893 -0.00346436 2.16140747 -0.00524902 C13.33418996 0.00668788 23.19755692 1.0726514 33.5625 5.4375 C34.4390625 5.77136719 35.315625 6.10523437 36.21875 6.44921875 C41.91898619 8.76249953 47.59687966 11.80917616 52.5625 15.4375 C52.5625 16.0975 52.5625 16.7575 52.5625 17.4375 C53.1503125 17.71078125 53.738125 17.9840625 54.34375 18.265625 C60.23777731 21.37866759 64.0764905 25.88570709 67.5625 31.4375 C68.2225 31.7675 68.8825 32.0975 69.5625 32.4375 C76.13987739 42.44655255 80.60040229 53.66491375 82.5625 65.4375 C82.73144775 66.02998535 82.90039551 66.6224707 83.07446289 67.23291016 C84.09146285 71.82696202 83.74721477 76.62775081 83.75 81.3125 C83.76224609 82.38886719 83.77449219 83.46523437 83.78710938 84.57421875 C83.79708279 89.96651096 83.63599513 94.38189951 81.5625 99.4375 C81.2422505 101.03620585 80.94905288 102.64064913 80.6875 104.25 C79.68714953 109.41334742 77.88087771 113.74033083 75.5625 118.4375 C74.86060547 119.94957031 74.86060547 119.94957031 74.14453125 121.4921875 C71.51770794 127.0159445 69.22223985 131.36022763 64.5625 135.4375 C63.65780494 136.55538604 62.76272254 137.68108891 61.875 138.8125 C58.16084884 143.21338223 53.56288563 146.60595633 48.5625 149.4375 C47.5725 149.4375 46.5825 149.4375 45.5625 149.4375 C45.2325 150.4275 44.9025 151.4175 44.5625 152.4375 C39.99982459 154.71883771 35.24196206 156.25719501 30.3828125 157.7890625 C28.56819531 158.28886351 28.56819531 158.28886351 27.5625 159.4375 C25.42313023 159.81007052 23.27553715 160.13600082 21.125 160.4375 C16.69700925 160.95867391 16.69700925 160.95867391 12.5625 162.4375 C8.50517877 162.68196644 4.4388519 162.62271051 0.375 162.625 C-0.74970703 162.63724609 -1.87441406 162.64949219 -3.03320312 162.66210938 C-8.94111824 162.67252898 -13.85913091 162.37685488 -19.4375 160.4375 C-21.03771899 160.12489908 -22.64179212 159.83099126 -24.25 159.5625 C-35.04829352 157.47515863 -45.84339606 152.29368515 -54.4375 145.4375 C-54.4375 144.7775 -54.4375 144.1175 -54.4375 143.4375 C-55.13875 143.251875 -55.84 143.06625 -56.5625 142.875 C-66.5053119 137.90359405 -74.00753059 123.15209529 -78.4375 113.4375 C-79.12142555 111.22458907 -79.63147738 109.08280102 -80.015625 106.80078125 C-80.42296082 104.24723284 -80.42296082 104.24723284 -81.45703125 101.09765625 C-83.06844773 94.70461709 -82.87187312 88.11576639 -82.875 81.5625 C-82.87806152 80.87751434 -82.88112305 80.19252869 -82.88427734 79.48678589 C-82.89749549 68.18940286 -81.50665932 58.03184694 -77.4375 47.4375 C-76.7775 47.4375 -76.1175 47.4375 -75.4375 47.4375 C-75.355 46.57125 -75.2725 45.705 -75.1875 44.8125 C-74.32392716 40.92642222 -72.88499984 38.55249979 -70.4375 35.4375 C-69.7775 35.4375 -69.1175 35.4375 -68.4375 35.4375 C-68.33308594 34.69113281 -68.22867188 33.94476563 -68.12109375 33.17578125 C-66.14833809 25.2734857 -56.9382068 18.71069189 -50.4375 14.4375 C-49.4475 14.4375 -48.4575 14.4375 -47.4375 14.4375 C-47.1075 13.4475 -46.7775 12.4575 -46.4375 11.4375 C-44.8359375 10.375 -44.8359375 10.375 -42.8125 9.4375 C-42.08804687 9.09976563 -41.36359375 8.76203125 -40.6171875 8.4140625 C-39.89789062 8.09179688 -39.17859375 7.76953125 -38.4375 7.4375 C-37.2825 6.90125 -36.1275 6.365 -34.9375 5.8125 C-31.13452104 4.31847255 -27.40618179 3.35334964 -23.4375 2.4375 C-22.35210938 2.0971875 -21.26671875 1.756875 -20.1484375 1.40625 C-13.57005365 -0.23093188 -6.73844876 -0.00038673 0 0 Z M-17.96875 58.66015625 C-25.24021983 66.8405598 -25.26833122 76.10360766 -24.890625 86.625 C-24.3737704 94.09325853 -21.74837837 99.48471097 -17.1875 105.3125 C-10.76966824 110.27173363 -5.55630891 113.29793682 2.765625 112.9453125 C7.51223724 112.08349743 11.47097477 109.92259124 15.5625 107.4375 C15.5625 106.7775 15.5625 106.1175 15.5625 105.4375 C16.5525 105.1075 17.5425 104.7775 18.5625 104.4375 C19.78770264 101.42902582 19.78770264 101.42902582 20.5625 98.4375 C21.2225 98.4375 21.8825 98.4375 22.5625 98.4375 C23.09898172 95.9399806 23.61679551 93.4407955 24.125 90.9375 C24.27646484 90.24140625 24.42792969 89.5453125 24.58398438 88.828125 C25.60722608 83.68812015 25.42098315 79.60959602 24.5625 74.4375 C24.45550781 73.4784375 24.34851562 72.519375 24.23828125 71.53125 C23.07960799 63.25857208 19.96408962 58.67315842 14 53 C2.25093365 47.6595153 -9.06206683 49.9369899 -17.96875 58.66015625 Z " fill="#000000" transform="translate(1088.4375,99.5625)"/>
<path d="M0 0 C2.09358685 -0.00969141 4.18618436 -0.04076067 6.27954102 -0.07226562 C12.8413613 -0.12339974 18.79882795 -0.0389095 24.93432617 2.5012207 C27.05395195 3.34212598 29.12000389 3.76597778 31.35961914 4.17773438 C35.94383649 5.13144393 39.71640631 7.00326974 43.79711914 9.24023438 C44.51254883 9.57023437 45.22797852 9.90023437 45.96508789 10.24023438 C47.79711914 11.24023438 47.79711914 11.24023438 48.79711914 13.24023438 C50.7723476 14.28831478 52.77193423 15.29227548 54.79711914 16.24023438 C54.79711914 16.90023437 54.79711914 17.56023437 54.79711914 18.24023438 C55.78711914 18.57023437 56.77711914 18.90023437 57.79711914 19.24023438 C57.79711914 19.90023437 57.79711914 20.56023437 57.79711914 21.24023438 C58.38493164 21.49417969 58.97274414 21.748125 59.57836914 22.00976562 C65.61608564 25.35814714 69.86859259 32.14889914 72.79711914 38.24023438 C72.79711914 39.56023437 72.79711914 40.88023437 72.79711914 42.24023438 C73.45711914 42.24023438 74.11711914 42.24023438 74.79711914 42.24023438 C77.71124306 49.1007918 80.21771222 55.38076709 80.61352539 62.86523438 C80.80406001 65.3300227 81.31949888 67.53300812 81.92211914 69.92773438 C83.32572897 76.55530561 82.99722873 83.5953323 81.79711914 90.24023438 C80.25923498 92.25993257 79.37771568 93.12454062 76.86623859 93.62499523 C76.13156959 93.6296042 75.39690058 93.63421316 74.63996887 93.63896179 C73.79442947 93.65149994 72.94889008 93.66403809 72.07772827 93.67695618 C71.15344025 93.67552109 70.22915222 93.674086 69.27685547 93.67260742 C68.30106033 93.68279907 67.3252652 93.69299072 66.31990051 93.70349121 C63.08959284 93.73372263 59.85958119 93.74290274 56.62915039 93.75195312 C54.39140326 93.76879226 52.15366564 93.78694146 49.91593933 93.80635071 C44.02229786 93.85393976 38.12869491 93.88369157 32.23492432 93.90979004 C26.22237539 93.93955062 20.20995931 93.98609637 14.19750977 94.03125 C2.39744892 94.11738447 -9.40263919 94.18468464 -21.20288086 94.24023438 C-20.88061523 95.31660156 -20.55834961 96.39296875 -20.22631836 97.50195312 C-19.20288086 101.24023438 -19.20288086 101.24023438 -18.82788086 105.05273438 C-18.56639422 108.34185946 -18.56639422 108.34185946 -16.14038086 109.67773438 C-15.18131836 109.95617187 -15.18131836 109.95617187 -14.20288086 110.24023438 C-14.20288086 110.90023437 -14.20288086 111.56023437 -14.20288086 112.24023438 C-12.99631836 112.45679688 -12.99631836 112.45679688 -11.76538086 112.67773438 C-9.20288086 113.24023438 -9.20288086 113.24023438 -8.20288086 114.24023438 C2.16327569 115.34798081 2.16327569 115.34798081 11.48461914 111.55273438 C13.55158336 109.71384896 14.98305122 107.96571034 16.5425415 105.66316223 C18.79711914 103.24023438 18.79711914 103.24023438 21.44207764 102.63896179 C22.44579407 102.65006485 23.4495105 102.66116791 24.48364258 102.67260742 C26.19496368 102.6731739 26.19496368 102.6731739 27.94085693 102.67375183 C29.16701721 102.69955826 30.39317749 102.72536469 31.65649414 102.75195312 C32.91600891 102.75902786 34.17552368 102.7661026 35.47320557 102.77339172 C38.8144727 102.79663561 42.15402238 102.84151626 45.49481201 102.89691162 C48.9066283 102.94815228 52.31862235 102.97091582 55.73071289 102.99609375 C62.41998896 103.05123998 69.10845491 103.13492703 75.79711914 103.24023438 C77.42484105 107.00106115 78.10497496 108.72590516 76.60961914 112.61523438 C76.17649414 113.76958984 76.17649414 113.76958984 75.73461914 114.94726562 C74.45997875 118.06482357 73.17123758 121.16482645 71.79711914 124.24023438 C71.13711914 124.24023438 70.47711914 124.24023438 69.79711914 124.24023438 C69.71461914 124.94148438 69.63211914 125.64273438 69.54711914 126.36523438 C68.61702909 129.93057957 67.03025545 132.33039009 64.79711914 135.24023438 C64.13711914 135.24023438 63.47711914 135.24023438 62.79711914 135.24023438 C62.13711914 136.56023437 61.47711914 137.88023437 60.79711914 139.24023438 C60.13711914 139.24023438 59.47711914 139.24023438 58.79711914 139.24023438 C58.46711914 140.23023438 58.13711914 141.22023437 57.79711914 142.24023438 C55.82390861 143.61290257 53.82168762 144.94451055 51.79711914 146.24023438 C51.3446582 146.71460938 50.89219727 147.18898437 50.42602539 147.67773438 C42.36689096 155.40831896 30.09920462 158.31658252 19.55493164 160.59179688 C16.85665616 161.11437419 16.85665616 161.11437419 14.79711914 162.24023438 C10.73979791 162.48470082 6.67347104 162.42544488 2.60961914 162.42773438 C1.48491211 162.43998047 0.36020508 162.45222656 -0.79858398 162.46484375 C-6.70733965 162.47526484 -11.62334998 162.17747071 -17.20288086 160.24023438 C-18.82403564 159.9279018 -20.44893381 159.63398322 -22.07788086 159.36523438 C-27.19628137 158.37257488 -31.54681761 156.53869028 -36.20288086 154.24023438 C-36.8822168 153.93085938 -37.56155273 153.62148437 -38.26147461 153.30273438 C-43.31492911 150.93854513 -48.10214041 148.05741298 -52.20288086 144.24023438 C-52.20288086 143.58023438 -52.20288086 142.92023438 -52.20288086 142.24023438 C-52.80100586 141.97210938 -53.39913086 141.70398438 -54.01538086 141.42773438 C-56.2013594 140.24106031 -57.6162068 139.14424325 -59.20288086 137.24023438 C-59.20288086 136.58023438 -59.20288086 135.92023438 -59.20288086 135.24023438 C-60.19288086 134.91023437 -61.18288086 134.58023438 -62.20288086 134.24023438 C-63.95678711 132.13085937 -63.95678711 132.13085937 -65.76538086 129.49023438 C-66.36479492 128.62914062 -66.96420898 127.76804687 -67.58178711 126.88085938 C-69.12743041 124.36313679 -70.17299463 122.00084229 -71.20288086 119.24023438 C-71.60506836 118.34046875 -72.00725586 117.44070312 -72.42163086 116.51367188 C-75.06186711 110.54094231 -76.89387572 104.98455938 -77.84350586 98.51757812 C-78.16352267 96.08416583 -78.16352267 96.08416583 -79.20288086 93.24023438 C-79.43506481 89.47339116 -79.38805313 85.70098373 -79.39038086 81.92773438 C-79.40262695 80.89455078 -79.41487305 79.86136719 -79.42749023 78.796875 C-79.43772617 73.47760098 -79.16276793 69.24638787 -77.20288086 64.24023438 C-76.87116634 62.14200839 -76.58026838 60.03697294 -76.32788086 57.92773438 C-75.48512721 52.10145325 -73.91718712 47.42736057 -71.20288086 42.24023438 C-70.74268555 41.27859375 -70.28249023 40.31695312 -69.80834961 39.32617188 C-65.78670897 31.59601104 -60.08741582 23.69204179 -53.20288086 18.24023438 C-52.54288086 18.24023438 -51.88288086 18.24023438 -51.20288086 18.24023438 C-50.87288086 17.25023438 -50.54288086 16.26023437 -50.20288086 15.24023438 C-48.55288086 14.91023438 -46.90288086 14.58023438 -45.20288086 14.24023438 C-44.87288086 13.25023438 -44.54288086 12.26023437 -44.20288086 11.24023438 C-42.53100586 10.14257812 -42.53100586 10.14257812 -40.45288086 9.17773438 C-39.72713867 8.83871094 -39.00139648 8.4996875 -38.25366211 8.15039062 C-33.63446433 6.10034666 -29.06523787 4.62947924 -24.20288086 3.24023438 C-23.35725586 2.88960938 -22.51163086 2.53898437 -21.64038086 2.17773438 C-14.75444442 -0.47070272 -7.26393233 0.02031159 0 0 Z M-18.20288086 54.24023438 C-19.19288086 57.21023437 -20.18288086 60.18023437 -21.20288086 63.24023438 C-7.01288086 63.24023438 7.17711914 63.24023438 21.79711914 63.24023438 C23.39743258 60.0396075 21.82885605 57.51751631 20.79711914 54.24023438 C20.13711914 54.24023438 19.47711914 54.24023438 18.79711914 54.24023438 C18.30211914 52.75523437 18.30211914 52.75523437 17.79711914 51.24023438 C14.59330758 47.27863505 10.63039505 46.93070236 5.79711914 46.24023438 C-3.31158535 45.33249406 -11.86098159 47.2943447 -18.20288086 54.24023438 Z " fill="#000000" transform="translate(743.202880859375,99.759765625)"/>
<path d="M0 0 C1.10817581 -0.01606293 2.21635162 -0.03212585 3.35810852 -0.04867554 C8.43567437 -0.09293933 13.51310682 -0.13419274 18.59082031 -0.15722656 C21.27313378 -0.17056129 23.95468558 -0.19839932 26.63671875 -0.23925781 C30.49266599 -0.29388472 34.34757589 -0.31588048 38.20385742 -0.33056641 C39.40500687 -0.35323578 40.60615631 -0.37590515 41.84370422 -0.39926147 C50.14566469 -0.37809092 50.14566469 -0.37809092 53.53076172 2.53417969 C55.05399428 5.70164247 56.02816778 8.78529828 56.80932617 12.19287109 C57.30490705 14.25643739 57.80523576 16.31886701 58.30932617 18.38037109 C58.54651367 19.38455078 58.78370117 20.38873047 59.02807617 21.42333984 C59.7306543 23.91397932 60.63866618 25.90368577 61.80932617 28.19287109 C62.1689799 29.51426552 62.47971979 30.84970759 62.74682617 32.19287109 C63.54424995 35.97906433 64.39570255 39.74528193 65.30932617 43.50537109 C65.54651367 44.49150391 65.78370117 45.47763672 66.02807617 46.49365234 C66.7371735 48.94358361 67.65831498 50.93278839 68.80932617 53.19287109 C69.1689799 54.51426552 69.47971979 55.84970759 69.74682617 57.19287109 C70.54424995 60.97906433 71.39570255 64.74528193 72.30932617 68.50537109 C72.54651367 69.49150391 72.78370117 70.47763672 73.02807617 71.49365234 C73.73748202 73.94464953 74.66553155 75.92834223 75.80932617 78.19287109 C76.18822028 79.64003607 76.52090152 81.09999561 76.80932617 82.56787109 C77.57054289 86.21811506 78.5797857 89.6681884 79.80932617 93.19287109 C80.15909376 94.52198792 80.50028634 95.85369849 80.80932617 97.19287109 C82.53733706 93.42266551 83.97206399 89.85645631 84.93432617 85.81787109 C85.80932617 82.19287109 85.80932617 82.19287109 86.80932617 81.19287109 C87.15664353 79.61680912 87.46247094 78.03150031 87.74682617 76.44287109 C88.44082753 72.7915953 89.41335003 69.63627892 90.80932617 66.19287109 C90.97432617 64.99662109 91.13932617 63.80037109 91.30932617 62.56787109 C91.80932617 59.19287109 91.80932617 59.19287109 93.80932617 56.19287109 C94.20264907 54.58133977 94.53097461 52.95318651 94.80932617 51.31787109 C95.47434856 47.69952093 96.42705338 44.60247732 97.80932617 41.19287109 C97.97432617 39.99662109 98.13932617 38.80037109 98.30932617 37.56787109 C98.80932617 34.19287109 98.80932617 34.19287109 100.80932617 31.19287109 C101.20503208 29.39295882 101.53244484 27.57734916 101.80932617 25.75537109 C102.36182277 22.12961215 103.13293672 19.4338907 104.80932617 16.19287109 C105.16485356 14.74442619 105.47663333 13.28463222 105.74682617 11.81787109 C106.61104675 7.66138167 107.71416977 3.2880275 110.80932617 0.19287109 C112.58378627 0.09393332 114.36218868 0.06488017 116.1394043 0.06347656 C117.27728394 0.0603244 118.41516357 0.05717224 119.58752441 0.05392456 C120.82603149 0.05594879 122.06453857 0.05797302 123.34057617 0.06005859 C124.60196411 0.05910187 125.86335205 0.05814514 127.16296387 0.05715942 C129.83629755 0.05647735 132.50954054 0.0578358 135.18286133 0.0625 C138.61639308 0.06819729 142.04984667 0.06491809 145.48337555 0.05892754 C148.7482786 0.05445347 152.0131721 0.05758226 155.27807617 0.06005859 C156.51658325 0.05803436 157.75509033 0.05601013 159.03112793 0.05392456 C160.16900757 0.05707672 161.30688721 0.06022888 162.47924805 0.06347656 C163.48661011 0.06427216 164.49397217 0.06506775 165.53186035 0.06588745 C167.80932617 0.19287109 167.80932617 0.19287109 168.80932617 1.19287109 C169.39786864 6.93116012 167.58236925 11.82538614 165.80932617 17.19287109 C165.54635742 18.03076172 165.28338867 18.86865234 165.01245117 19.73193359 C163.87297377 23.30152096 162.90910277 26.0432062 160.80932617 29.19287109 C160.28789772 30.55240707 159.81208867 31.9299249 159.37182617 33.31787109 C159.11530273 34.11580078 158.8587793 34.91373047 158.59448242 35.73583984 C158.20583008 36.95207031 158.20583008 36.95207031 157.80932617 38.19287109 C157.31092592 39.67257756 156.81095253 41.15175518 156.30932617 42.63037109 C154.94577347 46.69961215 153.73170316 50.8041925 152.55541992 54.93115234 C151.82154813 57.15582128 150.86861693 59.10832301 149.80932617 61.19287109 C148.7956204 64.55077148 147.87939934 67.92335891 146.99682617 71.31787109 C145.6711672 75.98924079 143.80125044 80.46597598 142.03979492 84.98583984 C139.51559864 91.56477683 137.46069588 98.24731791 135.55541992 105.02880859 C134.80932617 107.19287109 134.80932617 107.19287109 132.80932617 110.19287109 C132.31336479 112.07752436 131.82267708 113.96396449 131.37573242 115.86083984 C130.74696327 118.44963422 130.04658236 121.00785087 129.30932617 123.56787109 C128.95354492 124.81697266 128.95354492 124.81697266 128.59057617 126.09130859 C127.80932617 128.19287109 127.80932617 128.19287109 125.80932617 130.19287109 C125.31047295 132.08851332 124.81827928 133.98642382 124.37573242 135.89599609 C123.11935406 140.99082696 121.7293516 145.81283295 118.80932617 150.19287109 C118.12676628 152.52160484 117.45881842 154.85469901 116.80932617 157.19287109 C114.9560849 159.04611236 111.9062236 158.36909871 109.42529297 158.40161133 C108.42521713 158.416287 108.42521713 158.416287 107.40493774 158.43125916 C105.18949397 158.46127342 102.97411084 158.48261571 100.75854492 158.50146484 C100.0032078 158.50803667 99.24787067 158.5146085 98.46964455 158.52137947 C94.47099302 158.5540007 90.47236845 158.57844379 86.47363281 158.59790039 C83.16073898 158.61571602 79.84869601 158.65053374 76.53613281 158.70043945 C72.5407875 158.76056847 68.54623135 158.79136586 64.55045509 158.80107307 C63.02694335 158.80964268 61.50345353 158.82849827 59.98019981 158.8578167 C57.84637699 158.89667272 55.71563466 158.89777648 53.58154297 158.88989258 C51.76072456 158.90535378 51.76072456 158.90535378 49.90312195 158.92112732 C46.80932617 158.19287109 46.80932617 158.19287109 44.44709778 155.28919983 C43.13285558 152.80452745 42.01942375 150.5516772 41.18432617 147.88037109 C40.94584961 147.11982422 40.70737305 146.35927734 40.46166992 145.57568359 C39.59915937 142.42519596 38.93132616 139.25167104 38.33666992 136.04052734 C37.90639164 133.96601188 37.90639164 133.96601188 35.80932617 132.19287109 C35.06323242 130.34521484 35.06323242 130.34521484 34.37182617 128.13037109 C34.11530273 127.32341797 33.8587793 126.51646484 33.59448242 125.68505859 C33.20583008 124.45142578 33.20583008 124.45142578 32.80932617 123.19287109 C32.31170594 121.71290213 31.81175276 120.23371529 31.30932617 118.75537109 C29.41584161 113.07491741 27.71326742 107.33783334 26.05932617 101.58349609 C24.61180049 96.60762655 22.9181328 91.93768601 20.80932617 87.19287109 C19.3069201 83.44059323 17.95423169 79.71453096 16.87182617 75.81787109 C15.99537066 72.8276111 14.9702204 70.16952383 13.74682617 67.31787109 C11.77948015 62.5494339 11.1405635 58.32704976 10.80932617 53.19287109 C10.14932617 53.19287109 9.48932617 53.19287109 8.80932617 53.19287109 C8.6159668 52.43361328 8.42260742 51.67435547 8.22338867 50.89208984 C7.96299805 49.89822266 7.70260742 48.90435547 7.43432617 47.88037109 C7.1790918 46.89423828 6.92385742 45.90810547 6.66088867 44.89208984 C5.89019444 42.01228949 5.89019444 42.01228949 3.80932617 39.19287109 C2.76211852 35.78944622 1.85392533 32.36122286 0.94213867 28.91943359 C-0.02618691 25.73397633 -1.17455527 22.74914029 -2.50097656 19.69921875 C-5.23766895 13.37948499 -7.03141492 8.15901157 -6.19067383 1.19287109 C-4.49343615 -0.50436658 -2.32433653 0.0304849 0 0 Z " fill="#000000" transform="translate(488.190673828125,100.80712890625)"/>
<path d="M0 0 C1.31943604 -0.00426498 2.63887207 -0.00852997 3.99829102 -0.01292419 C5.46916202 -0.01257465 6.940033 -0.0121131 8.41090393 -0.0115509 C9.95311057 -0.0145416 11.49531646 -0.01794392 13.03752136 -0.02172852 C17.23375552 -0.03058159 21.42996929 -0.03290717 25.62621188 -0.0335443 C29.12537384 -0.03449235 32.62453102 -0.03816943 36.12369114 -0.0417164 C44.37682051 -0.04986583 52.62993897 -0.05230018 60.8830719 -0.05158997 C69.40591098 -0.05098895 77.92868682 -0.06154443 86.45150989 -0.07733363 C93.76109378 -0.09039429 101.07065695 -0.09577449 108.38025242 -0.09513456 C112.74936809 -0.09487915 117.11842758 -0.097754 121.48753166 -0.10831261 C125.595586 -0.11796891 129.70353015 -0.11808982 133.81158829 -0.11079597 C135.32129769 -0.10974707 136.83101386 -0.11213107 138.34071159 -0.11815643 C140.39784499 -0.12583636 142.45459405 -0.12125852 144.51171875 -0.11352539 C145.66412772 -0.11407016 146.81653669 -0.11461493 148.00386715 -0.1151762 C150.8193512 0.13371277 150.8193512 0.13371277 153.8193512 2.13371277 C154.14831666 5.12595971 154.28739017 7.90636364 154.2881012 10.90324402 C154.29571472 11.77639755 154.30332825 12.64955109 154.31117249 13.54916382 C154.32199047 15.39933918 154.32481971 17.24957569 154.32032776 19.09977722 C154.31935838 21.92528551 154.36089581 24.74805218 154.4052887 27.57316589 C154.41049788 29.37068627 154.41318385 31.16821609 154.4131012 32.96574402 C154.42949646 33.80861465 154.44589172 34.65148529 154.46278381 35.51989746 C154.45347839 36.3138945 154.44417297 37.10789154 154.43458557 37.9259491 C154.43664001 38.61940933 154.43869446 39.31286957 154.44081116 40.02734375 C153.38421551 43.60855649 151.83800276 44.95008648 148.8193512 47.13371277 C145.22137735 47.81635312 141.7006198 47.71599556 138.04981995 47.62199402 C137.01368057 47.61491928 135.9775412 47.60784454 134.91000366 47.60055542 C131.60821123 47.57261884 128.30812904 47.50987907 125.0068512 47.44621277 C122.76533927 47.42112907 120.5238007 47.39831603 118.28224182 47.37785339 C112.79403039 47.32279483 107.30681299 47.23917558 101.8193512 47.13371277 C101.82119478 47.89462156 101.82303837 48.65553036 101.82493782 49.43949699 C101.8690594 67.9331543 101.90217973 86.42680114 101.92297554 104.9204998 C101.9332989 113.86382306 101.94737941 122.80711124 101.9702301 131.75041199 C101.99013161 139.54316103 102.00305992 147.33588467 102.00752819 155.12865841 C102.01014108 159.2568896 102.01630435 163.38504812 102.03081131 167.51325607 C102.04434413 171.39555916 102.04858261 175.27775934 102.04556656 179.16008377 C102.04611866 180.58797514 102.05012167 182.01586981 102.05776215 183.44374084 C102.06765562 185.38731931 102.0641418 187.33095247 102.05986023 189.27455139 C102.06170382 190.3641107 102.0635474 191.45367001 102.06544685 192.57624626 C101.8193512 195.13371277 101.8193512 195.13371277 99.8193512 197.13371277 C97.49755859 197.38095093 97.49755859 197.38095093 94.55934143 197.37663269 C93.46157883 197.37970932 92.36381622 197.38278595 91.23278809 197.38595581 C90.04318985 197.37877029 88.85359161 197.37158478 87.62794495 197.36418152 C86.41236404 197.3637233 85.19678314 197.36326508 83.94436646 197.36279297 C81.37119065 197.35976773 78.79801672 197.3518734 76.22486877 197.33952332 C72.26996936 197.3212733 68.31530393 197.31901352 64.36036682 197.31925964 C61.86622416 197.31434446 59.37208309 197.30851613 56.87794495 197.30168152 C55.68632248 197.3005687 54.49470001 197.29945587 53.26696777 197.29830933 C52.17235733 197.29192947 51.07774689 197.28554962 49.94996643 197.27897644 C48.49674232 197.27325874 48.49674232 197.27325874 47.01416016 197.26742554 C44.8193512 197.13371277 44.8193512 197.13371277 43.8193512 196.13371277 C43.72274168 194.2100965 43.69747952 192.28288211 43.69909668 190.35684204 C43.69772202 189.10175842 43.69634735 187.8466748 43.69493103 186.55355835 C43.69847064 185.14985633 43.70210546 183.74615455 43.70582581 182.342453 C43.70610767 180.87434389 43.70594996 179.40623464 43.7053833 177.93812561 C43.7050953 173.9403662 43.71099246 169.94263653 43.71795726 165.94488406 C43.72419035 161.77150544 43.72479456 157.59812621 43.72598267 153.42474365 C43.72909612 145.51638485 43.73730969 137.6080398 43.74733216 129.69968706 C43.75849287 120.69862783 43.76400364 111.69756795 43.76902759 102.69650352 C43.77949229 84.17556546 43.79709199 65.65464022 43.8193512 47.13371277 C43.24163467 47.1403746 42.66391815 47.14703644 42.06869507 47.15390015 C36.05033438 47.22032275 30.032078 47.26554211 24.01344299 47.29850769 C21.76795725 47.31358459 19.52250091 47.33404929 17.27711487 47.36003113 C14.04763021 47.39646194 10.81853526 47.41345032 7.58888245 47.42668152 C6.58662125 47.44216537 5.58436005 47.45764923 4.55172729 47.47360229 C-4.62327564 47.47581258 -4.62327564 47.47581258 -8.1806488 44.13371277 C-8.78192139 42.14050293 -8.78192139 42.14050293 -8.74827576 39.84587097 C-8.7478981 38.98520523 -8.74752045 38.12453949 -8.74713135 37.23779297 C-8.72132492 36.31270432 -8.69551849 35.38761566 -8.66893005 34.43449402 C-8.66185532 33.48430893 -8.65478058 32.53412384 -8.64749146 31.55514526 C-8.6194855 28.51803601 -8.55673525 25.48276541 -8.4931488 22.44621277 C-8.46807397 20.38829667 -8.44525938 18.3303517 -8.42478943 16.27238464 C-8.36963835 11.22545143 -8.28332262 6.17989389 -8.1806488 1.13371277 C-5.39453061 -0.25934633 -3.11852149 0.00453647 0 0 Z " fill="#000000" transform="translate(11.180648803710938,61.86628723144531)"/>
<path d="M0 0 C7.65377999 -0.05057791 15.30751713 -0.08568184 22.96142578 -0.10986328 C25.56691091 -0.11994064 28.17238469 -0.1336027 30.77783203 -0.15087891 C34.51597899 -0.17505102 38.25397685 -0.1864656 41.9921875 -0.1953125 C43.16304901 -0.20563507 44.33391052 -0.21595764 45.54025269 -0.22659302 C46.62122223 -0.22674408 47.70219177 -0.22689514 48.81591797 -0.22705078 C49.77078094 -0.231492 50.72564392 -0.23593323 51.70944214 -0.24050903 C54 0 54 0 56 2 C56.19548618 4.69345076 56.26484286 7.28392985 56.24723816 9.97840881 C56.24965257 10.81245678 56.25206699 11.64650474 56.25455457 12.50582689 C56.26021603 15.31654425 56.25151009 18.12703679 56.24291992 20.93774414 C56.24399219 22.94624392 56.24593004 24.95474339 56.24867249 26.96324158 C56.2535325 32.42998846 56.24585099 37.8966541 56.23571944 43.36339116 C56.22695889 49.072455 56.22869599 54.78151614 56.2290802 60.49058533 C56.22814272 70.07845424 56.21944709 79.66629157 56.20581055 89.25415039 C56.19007967 100.35589997 56.18481255 111.45761495 56.1855461 122.55937487 C56.18615543 133.21887829 56.18105898 143.87837038 56.17275429 154.53787041 C56.16921411 159.08372524 56.16738999 163.62957606 56.16686058 168.17543221 C56.16585957 173.52282933 56.15978287 178.87019714 56.14969444 184.21758461 C56.14676175 186.18609691 56.14554562 188.15461258 56.14612198 190.12312698 C56.14660904 192.79830792 56.14099305 195.47340545 56.13371277 198.14857483 C56.13526137 198.9380512 56.13680997 199.72752757 56.1384055 200.54092747 C56.11417857 205.88582143 56.11417857 205.88582143 55 207 C53.2507128 207.09365006 51.49763746 207.11744438 49.74584961 207.11352539 C48.62476303 207.11344986 47.50367645 207.11337433 46.34861755 207.11329651 C44.51896202 207.10555458 44.51896202 207.10555458 42.65234375 207.09765625 C41.41078018 207.0962413 40.16921661 207.09482635 38.89002991 207.09336853 C35.58394509 207.08870591 32.27792854 207.07971497 28.97186279 207.06866455 C25.6003885 207.05844827 22.22890717 207.05387045 18.85742188 207.04882812 C12.23826225 207.03777395 5.61913507 207.02101736 -1 207 C-2.55813636 203.88372728 -2.14056072 200.57621921 -2.13371277 197.15567017 C-2.13597833 196.33598956 -2.13824388 195.51630894 -2.14057809 194.67178953 C-2.14693686 191.90959689 -2.14608753 189.14745308 -2.14526367 186.38525391 C-2.148254 184.41117794 -2.15165624 182.43710256 -2.15544128 180.46302795 C-2.16429855 175.08907914 -2.16662013 169.71514623 -2.16725707 164.34119081 C-2.16820483 159.86041894 -2.17188162 155.3796508 -2.17542917 150.89888036 C-2.18358037 140.33004593 -2.1860128 129.76122002 -2.18530273 119.19238281 C-2.18470183 108.27813266 -2.19525457 97.36393192 -2.2110464 86.44969428 C-2.224108 77.09000624 -2.22948721 67.73033438 -2.22884732 58.3706373 C-2.22859192 52.77579729 -2.23146639 47.18100116 -2.24202538 41.5861702 C-2.25168311 36.32493048 -2.25180154 31.0637768 -2.24450874 25.8025341 C-2.24345998 23.86914253 -2.24584296 21.93574567 -2.2518692 20.0023632 C-2.25955109 17.36757228 -2.25496964 14.73308128 -2.24723816 12.09829712 C-2.2549535 10.94469962 -2.2549535 10.94469962 -2.26282471 9.76779711 C-2.23847477 6.02490207 -2.09325218 3.1760965 0 0 Z " fill="#000000" transform="translate(931,52)"/>
<path d="M0 0 C2.27709961 -0.38095093 2.27709961 -0.38095093 5.15234375 -0.38818359 C6.76411499 -0.40236832 6.76411499 -0.40236832 8.40844727 -0.4168396 C9.57303467 -0.41076691 10.73762207 -0.40469421 11.9375 -0.3984375 C13.72401978 -0.40274277 13.72401978 -0.40274277 15.54663086 -0.40713501 C18.06852696 -0.40917946 20.59043878 -0.40362317 23.11230469 -0.39111328 C26.98408286 -0.37506597 30.854817 -0.39095019 34.7265625 -0.41015625 C37.17187732 -0.40817389 39.61719148 -0.40433036 42.0625 -0.3984375 C43.2270874 -0.40451019 44.3916748 -0.41058289 45.59155273 -0.4168396 C46.66606689 -0.40738312 47.74058105 -0.39792664 48.84765625 -0.38818359 C50.2709021 -0.38460342 50.2709021 -0.38460342 51.72290039 -0.38095093 C52.47434326 -0.25523712 53.22578613 -0.12952332 54 0 C56.51021105 3.76531657 56.27301612 6.70878725 56.24050903 11.06742859 C56.24221788 11.89895299 56.24392673 12.7304774 56.24568737 13.58719951 C56.24899088 16.38333363 56.23796441 19.17922965 56.22705078 21.9753418 C56.22648685 23.97575881 56.22680287 25.97617624 56.22793579 27.97659302 C56.22851102 33.41636058 56.21672913 38.85604044 56.20278788 44.29578757 C56.19030891 49.97728264 56.18911226 55.65877959 56.18673706 61.34028625 C56.18051395 72.10311826 56.16409189 82.86590977 56.14403808 93.62872392 C56.12170493 105.88006623 56.11069216 118.13141045 56.10064721 130.38276803 C56.07972638 155.5885345 56.04453427 180.79426498 56 206 C53.42866541 207.28566729 51.602829 207.12009778 48.72412109 207.11352539 C47.07263565 207.11341209 47.07263565 207.11341209 45.38778687 207.11329651 C44.19505157 207.10813522 43.00231628 207.10297394 41.7734375 207.09765625 C40.55548492 207.0962413 39.33753235 207.09482635 38.08267212 207.09336853 C34.1800901 207.08775639 30.27756477 207.07520179 26.375 207.0625 C23.73437583 207.05748657 21.09375076 207.05292339 18.453125 207.04882812 C11.96873055 207.03778301 5.48436932 207.02103302 -1 207 C-2.56359494 203.87281012 -2.14054489 200.54379638 -2.13371277 197.11097717 C-2.13597833 196.28650744 -2.13824388 195.46203771 -2.14057809 194.61258405 C-2.14693693 191.83423798 -2.14608753 189.05594046 -2.14526367 186.27758789 C-2.14825398 184.29203732 -2.1516562 182.30648733 -2.15544128 180.32093811 C-2.16429825 174.91606571 -2.1666201 169.51120912 -2.16725707 164.10633016 C-2.16820475 159.60061075 -2.17188138 155.09489506 -2.17542917 150.58917707 C-2.18358006 139.96285117 -2.18601281 129.33653375 -2.18530273 118.71020508 C-2.18470166 107.73345106 -2.19525793 96.75674615 -2.2110464 85.78000456 C-2.22410313 76.36852793 -2.22948742 66.95706738 -2.22884732 57.54558176 C-2.2285918 51.91891566 -2.23147287 46.29229318 -2.24202538 40.66563606 C-2.25167509 35.37567244 -2.25180712 30.08579442 -2.24450874 24.79582787 C-2.24345902 22.85072836 -2.24584862 20.90562361 -2.2518692 18.96053314 C-2.25953748 16.31225548 -2.25497883 13.66427725 -2.24723816 11.01600647 C-2.25238172 10.24013768 -2.25752529 9.46426889 -2.26282471 8.66488892 C-2.23836108 4.89657893 -2.14455004 3.21682506 0 0 Z " fill="#000000" transform="translate(846,52)"/>
<path d="M0 0 C0.02312821 7.67536627 0.04091753 15.35072896 0.05181217 23.02612209 C0.05703995 26.58977422 0.06413569 30.15340257 0.07543945 33.71704102 C0.08834176 37.81006097 0.09322906 41.9030558 0.09765625 45.99609375 C0.10281754 47.28148544 0.10797882 48.56687714 0.11329651 49.89122009 C0.11337204 51.07236893 0.11344757 52.25351776 0.11352539 53.47045898 C0.115746 54.51636703 0.11796661 55.56227509 0.12025452 56.63987732 C0 59 0 59 -1 60 C-2.53896674 60.14533749 -4.08403794 60.22718033 -5.62890625 60.28125 C-7.05879883 60.33732422 -7.05879883 60.33732422 -8.51757812 60.39453125 C-9.52240234 60.42933594 -10.52722656 60.46414062 -11.5625 60.5 C-23.67289715 60.49878927 -23.67289715 60.49878927 -35 64 C-36.32 64 -37.64 64 -39 64 C-39.495 65.485 -39.495 65.485 -40 67 C-40.78375 67.5775 -41.5675 68.155 -42.375 68.75 C-46.61999871 72.38857032 -47.83327117 76.3882079 -48.39199829 81.789505 C-48.41504794 83.16719998 -48.42241231 84.54522059 -48.41650391 85.9230957 C-48.42508926 86.68168381 -48.43367462 87.44027191 -48.44252014 88.22184753 C-48.46743199 90.70658863 -48.47194472 93.19092707 -48.4765625 95.67578125 C-48.49088282 97.40977689 -48.50664169 99.14376118 -48.52377319 100.87773132 C-48.56550552 105.42576862 -48.59058584 109.97373556 -48.61126709 114.52191162 C-48.64717684 121.81893208 -48.70799596 129.11577941 -48.76975632 136.41261864 C-48.78886515 138.96195302 -48.80057849 141.51124087 -48.81118774 144.06062317 C-48.82139513 145.61504215 -48.83175265 147.16946015 -48.84228516 148.72387695 C-48.84384865 149.79063156 -48.84384865 149.79063156 -48.84544373 150.87893677 C-48.88657216 155.77314432 -48.88657216 155.77314432 -50 158 C-57.28421548 158.02312916 -64.5684231 158.04091801 -71.85266781 158.05181217 C-75.23471813 158.05703975 -78.6167434 158.06413511 -81.9987793 158.07543945 C-85.88329777 158.08834267 -89.76780597 158.09322924 -93.65234375 158.09765625 C-94.87211411 158.10281754 -96.09188446 158.10797882 -97.34861755 158.11329651 C-99.03024742 158.11340981 -99.03024742 158.11340981 -100.74584961 158.11352539 C-101.73846298 158.115746 -102.73107635 158.11796661 -103.75376892 158.12025452 C-106 158 -106 158 -107 157 C-107.10108484 155.01990993 -107.13077454 153.03616375 -107.13371277 151.05349731 C-107.13797775 149.76067841 -107.14224274 148.4678595 -107.14663696 147.13586426 C-107.1462874 145.68969724 -107.14582584 144.24353024 -107.14526367 142.79736328 C-107.14825355 141.2848604 -107.15165568 139.77235828 -107.15544128 138.25985718 C-107.16430365 134.14000758 -107.16662035 130.02017873 -107.16725707 125.90032053 C-107.16820445 122.46582724 -107.17188084 119.03133883 -107.17542917 115.59684741 C-107.18358248 107.49571479 -107.18601263 99.39459329 -107.18530273 91.29345703 C-107.18470193 82.92684854 -107.19525225 74.56030452 -107.2110464 66.19371235 C-107.22410783 59.02002855 -107.22948721 51.84636585 -107.22884732 44.67267025 C-107.22859189 40.38402283 -107.2314677 36.09543265 -107.24202538 31.80679703 C-107.25168274 27.77344589 -107.25180186 23.74020698 -107.24450874 19.70685196 C-107.2434599 18.22455685 -107.24584347 16.74225485 -107.2518692 15.25997162 C-107.25954962 13.24015175 -107.25376292 11.2202939 -107.24723816 9.20046997 C-107.24805531 7.50309283 -107.24805531 7.50309283 -107.24888897 5.77142525 C-107 3 -107 3 -105 0 C-102.76759338 -0.38768005 -102.76759338 -0.38768005 -99.95532227 -0.40405273 C-98.90405655 -0.41673691 -97.85279083 -0.42942108 -96.76966858 -0.44248962 C-95.06030373 -0.43808617 -95.06030373 -0.43808617 -93.31640625 -0.43359375 C-91.56673805 -0.44145653 -91.56673805 -0.44145653 -89.78172302 -0.44947815 C-87.31111447 -0.45591119 -84.84047535 -0.45454488 -82.36987305 -0.44604492 C-78.5813153 -0.43754223 -74.79426771 -0.46626947 -71.00585938 -0.49804688 C-68.60937545 -0.49965902 -66.21288885 -0.4990811 -63.81640625 -0.49609375 C-62.67885391 -0.50732773 -61.54130157 -0.51856171 -60.36927795 -0.53013611 C-58.78765114 -0.51606468 -58.78765114 -0.51606468 -57.17407227 -0.50170898 C-55.78080467 -0.50145973 -55.78080467 -0.50145973 -54.35939026 -0.50120544 C-52 0 -52 0 -50.2036438 1.89396667 C-48.83590768 4.28711475 -48.58086354 5.80643928 -48.48828125 8.546875 C-48.45283203 9.39121094 -48.41738281 10.23554687 -48.38085938 11.10546875 C-48.34702148 12.41451172 -48.34702148 12.41451172 -48.3125 13.75 C-48.27833984 14.63816406 -48.24417969 15.52632812 -48.20898438 16.44140625 C-48.12671286 18.62747803 -48.05749828 20.81315951 -48 23 C-47.34 22.01 -46.68 21.02 -46 20 C-45.34 20 -44.68 20 -44 20 C-43.505 18.515 -43.505 18.515 -43 17 C-42.34 17 -41.68 17 -41 17 C-40.505 15.515 -40.505 15.515 -40 14 C-32.86549982 8.10925368 -24.99346432 3.24836608 -16 1 C-14.2675 0.443125 -14.2675 0.443125 -12.5 -0.125 C-8.28715505 -1.17821124 -4.00951962 -2.00475981 0 0 Z " fill="#000000" transform="translate(288,101)"/>
<path d="M0 0 C1.08825073 -0.00744736 1.08825073 -0.00744736 2.19848633 -0.01504517 C4.60694319 -0.0296875 7.01533399 -0.03647527 9.42382812 -0.04199219 C11.10095216 -0.04774576 12.77807619 -0.05350347 14.4552002 -0.05926514 C17.97925116 -0.06978362 21.50327929 -0.07561947 25.02734375 -0.07910156 C29.52165666 -0.08456172 34.01566283 -0.10853255 38.50988007 -0.13707352 C41.97937872 -0.15579928 45.44880532 -0.16091094 48.91835022 -0.16243744 C50.57358969 -0.16544653 52.22882843 -0.17341547 53.88401794 -0.18662262 C64.38203009 -0.26434887 73.46193199 0.25342196 82.95507812 5.16113281 C82.95507812 5.82113281 82.95507812 6.48113281 82.95507812 7.16113281 C83.82132813 7.59425781 83.82132813 7.59425781 84.70507812 8.03613281 C85.44757813 8.40738281 86.19007812 8.77863281 86.95507812 9.16113281 C87.65632813 9.44988281 88.35757813 9.73863281 89.08007812 10.03613281 C91.42413227 11.4425653 91.80459302 12.71635196 92.95507812 15.16113281 C93.65632812 15.86238281 94.35757813 16.56363281 95.08007812 17.28613281 C96.95507812 19.16113281 96.95507812 19.16113281 96.95507812 21.16113281 C97.61507812 21.49113281 98.27507812 21.82113281 98.95507812 22.16113281 C102.52711242 28.46472275 102.17476886 34.47629796 102.1953125 41.55786133 C102.20502793 43.58814315 102.23607021 45.61741612 102.26757812 47.64746094 C102.2753125 49.57041992 102.2753125 49.57041992 102.28320312 51.53222656 C102.29254883 52.70712646 102.30189453 53.88202637 102.31152344 55.0925293 C101.92181809 58.44746523 101.1476769 59.67687269 98.95507812 62.16113281 C98.79136719 62.825 98.62765625 63.48886719 98.45898438 64.17285156 C96.79801587 70.72659549 88.30851286 77.38654309 82.95507812 81.16113281 C80.57176202 82.17675047 78.51900924 82.68039573 75.95507812 83.16113281 C75.95507812 83.82113281 75.95507812 84.48113281 75.95507812 85.16113281 C47.57507813 85.16113281 19.19507812 85.16113281 -10.04492188 85.16113281 C-10.04492188 84.50113281 -10.04492188 83.84113281 -10.04492188 83.16113281 C-10.6146875 83.03996094 -11.18445313 82.91878906 -11.77148438 82.79394531 C-18.42928631 80.94074271 -23.56571664 77.22490099 -27.75585938 71.80957031 C-29.00327227 70.11919565 -29.00327227 70.11919565 -30.60351562 68.74316406 C-32.3982684 66.77331345 -32.95989024 65.01195105 -33.73242188 62.47363281 C-33.98378906 61.66539062 -34.23515625 60.85714844 -34.49414062 60.02441406 C-34.67589844 59.40953125 -34.85765625 58.79464844 -35.04492188 58.16113281 C-35.70492187 58.16113281 -36.36492188 58.16113281 -37.04492188 58.16113281 C-37.04492188 48.26113281 -37.04492188 38.36113281 -37.04492188 28.16113281 C-36.38492188 28.16113281 -35.72492187 28.16113281 -35.04492188 28.16113281 C-34.92117187 27.25363281 -34.79742187 26.34613281 -34.66992188 25.41113281 C-33.74993073 20.62717884 -31.87114263 17.72621703 -28.66992188 14.09863281 C-28.0846875 13.42703125 -27.49945313 12.75542969 -26.89648438 12.06347656 C-25.03059682 10.14641488 -23.32074682 8.57144132 -21.04492188 7.16113281 C-19.72492187 7.16113281 -18.40492187 7.16113281 -17.04492188 7.16113281 C-17.70492188 6.83113281 -18.36492188 6.50113281 -19.04492188 6.16113281 C-19.04492188 5.50113281 -19.04492188 4.84113281 -19.04492188 4.16113281 C-15.74492187 3.83113281 -12.44492187 3.50113281 -9.04492188 3.16113281 C-9.04492188 2.50113281 -9.04492188 1.84113281 -9.04492188 1.16113281 C-6.05753673 -0.33255976 -3.33248037 0.01729661 0 0 Z " fill="#F7EFD8" transform="translate(37.044921875,284.8388671875)"/>
<path d="M0 0 C28.38 0 56.76 0 86 0 C86 0.66 86 1.32 86 2 C86.99 2.20625 87.98 2.4125 89 2.625 C93.67422183 3.94410555 97.50698702 6.66122396 101 10 C101 10.66 101 11.32 101 12 C101.5775 12.20625 102.155 12.4125 102.75 12.625 C105.88348274 14.53990612 107.22114587 16.82347477 109 20 C109 21.32 109 22.64 109 24 C109.66 24 110.32 24 111 24 C111 24.99 111 25.98 111 27 C111.66 27 112.32 27 113 27 C113 36.9 113 46.8 113 57 C112.34 57 111.68 57 111 57 C111 57.66 111 58.32 111 59 C110.34 59 109.68 59 109 59 C109.07992188 59.72574219 109.15984375 60.45148437 109.2421875 61.19921875 C108.92473626 64.87038873 107.61148274 66.14461905 105.125 68.8125 C104.40570312 69.60269531 103.68640625 70.39289063 102.9453125 71.20703125 C101 73 101 73 99 73 C98.77093964 73.59376938 98.54187927 74.18753876 98.30587769 74.79930115 C95.52804462 79.48057727 90.08743524 81.57157381 85 83 C78.49482033 84.01656852 71.86611203 83.72587437 65.3046875 83.62109375 C63.42091843 83.612423 61.53713616 83.6062866 59.65335083 83.60255432 C54.73169628 83.58544568 49.81110732 83.53147506 44.88983154 83.47027588 C40.85671981 83.42642972 36.82369228 83.40907877 32.79038811 83.39300442 C27.98259361 83.37344758 23.17489731 83.34290097 18.3671875 83.30859375 C17.44950466 83.30216795 16.53182182 83.29574215 15.58633041 83.28912163 C13.00390231 83.26821289 10.42167754 83.23992875 7.83935547 83.20874023 C6.68620094 83.19999374 6.68620094 83.19999374 5.50975037 83.19107056 C0.23075661 83.11537831 0.23075661 83.11537831 -2 82 C-2 81.34 -2 80.68 -2 80 C-3.03125 79.79375 -4.0625 79.5875 -5.125 79.375 C-9.01096685 78.29731284 -11.0331139 76.33555173 -13.640625 73.33984375 C-15.0735751 71.73062492 -15.0735751 71.73062492 -18 71 C-21 66.66666667 -21 66.66666667 -21 64 C-21.66 64 -22.32 64 -23 64 C-24.25664978 61.09399739 -25 59.20395416 -25 56 C-25.66 56 -26.32 56 -27 56 C-28.63133978 51.10598066 -28.18452602 46.06166204 -28.1875 40.9375 C-28.19974609 39.82310547 -28.21199219 38.70871094 -28.22460938 37.56054688 C-28.22654297 36.49771484 -28.22847656 35.43488281 -28.23046875 34.33984375 C-28.23457764 33.36394287 -28.23868652 32.38804199 -28.24291992 31.38256836 C-28 29 -28 29 -26 27 C-26 25.68 -26 24.36 -26 23 C-25.34 23 -24.68 23 -24 23 C-23.87625 22.4225 -23.7525 21.845 -23.625 21.25 C-21.62856627 14.06283857 -16.08571816 8.78022202 -9.75 5.125 C-8.8425 4.75375 -7.935 4.3825 -7 4 C-6.278125 3.608125 -5.55625 3.21625 -4.8125 2.8125 C-3 2 -3 2 0 2 C0 1.34 0 0.68 0 0 Z " fill="#F7EFD8" transform="translate(1167,0)"/>
<path d="M0 0 C25.08 0 50.16 0 76 0 C76 0.33 76 0.66 76 1 C50.92 1 25.84 1 0 1 C0 0.67 0 0.34 0 0 Z " fill="#000000" transform="translate(1172,84)"/>
<path d="M0 0 C0.33 0 0.66 0 1 0 C1 7.59 1 15.18 1 23 C0.67 23 0.34 23 0 23 C0 15.41 0 7.82 0 0 Z " fill="#000000" transform="translate(1210,316)"/>
<path d="M0 0 C0.33 0 0.66 0 1 0 C1 7.26 1 14.52 1 22 C0.67 22 0.34 22 0 22 C0 14.74 0 7.48 0 0 Z " fill="#000000" transform="translate(140,317)"/>
<path d="" fill="#000000" transform="translate(0,0)"/>
<path d="" fill="#000000" transform="translate(0,0)"/>
<path d="M0 0 C2 1 2 1 2 1 Z " fill="#000000" transform="translate(1257,80)"/>
<path d="" fill="#000000" transform="translate(0,0)"/>
<path d="" fill="#000000" transform="translate(0,0)"/>
<path d="" fill="#F8F0D9" transform="translate(0,0)"/>
<path d="" fill="#F8F0D9" transform="translate(0,0)"/>
<path d="" fill="#F8F0D9" transform="translate(0,0)"/>
<path d="" fill="#000000" transform="translate(0,0)"/>
<path d="" fill="#F8F0D9" transform="translate(0,0)"/>
<path d="" fill="#F8F0D9" transform="translate(0,0)"/>
</svg>
